<mxfile host="Electron" agent="Mozilla/5.0 (Windows NT 10.0; Win64; x64) AppleWebKit/537.36 (KHTML, like Gecko) draw.io/26.1.1 Chrome/132.0.6834.210 Electron/34.3.3 Safari/537.36" version="26.1.1">
  <diagram id="C5RBs43oDa-KdzZeNtuy" name="Page-1">
    <mxGraphModel dx="1877" dy="1798" grid="1" gridSize="10" guides="1" tooltips="1" connect="1" arrows="1" fold="1" page="1" pageScale="1" pageWidth="827" pageHeight="1169" math="0" shadow="0">
      <root>
        <mxCell id="WIyWlLk6GJQsqaUBKTNV-0" />
        <mxCell id="WIyWlLk6GJQsqaUBKTNV-1" parent="WIyWlLk6GJQsqaUBKTNV-0" />
        <mxCell id="GLUpQICMVRm5YnNT2nKO-69" value="" style="strokeWidth=2;html=1;shape=mxgraph.flowchart.annotation_2;align=left;labelPosition=right;pointerEvents=1;rotation=-90;" vertex="1" parent="WIyWlLk6GJQsqaUBKTNV-1">
          <mxGeometry x="609.7" y="-225.55" width="161.87" height="420.25" as="geometry" />
        </mxCell>
        <mxCell id="GLUpQICMVRm5YnNT2nKO-61" value="" style="strokeWidth=2;html=1;shape=mxgraph.flowchart.annotation_2;align=left;labelPosition=right;pointerEvents=1;" vertex="1" parent="WIyWlLk6GJQsqaUBKTNV-1">
          <mxGeometry x="750" y="35" width="50" height="410" as="geometry" />
        </mxCell>
        <mxCell id="GLUpQICMVRm5YnNT2nKO-24" style="edgeStyle=orthogonalEdgeStyle;rounded=0;orthogonalLoop=1;jettySize=auto;html=1;entryX=0;entryY=0.5;entryDx=0;entryDy=0;" edge="1" parent="WIyWlLk6GJQsqaUBKTNV-1" source="GLUpQICMVRm5YnNT2nKO-6" target="GLUpQICMVRm5YnNT2nKO-11">
          <mxGeometry relative="1" as="geometry" />
        </mxCell>
        <mxCell id="GLUpQICMVRm5YnNT2nKO-6" value="Puede inscribirse para&lt;div&gt;ser&lt;/div&gt;" style="strokeWidth=2;html=1;shape=mxgraph.flowchart.decision;whiteSpace=wrap;fillColor=#fff2cc;strokeColor=#d6b656;" vertex="1" parent="WIyWlLk6GJQsqaUBKTNV-1">
          <mxGeometry x="-10" y="177.5" width="164" height="95" as="geometry" />
        </mxCell>
        <mxCell id="GLUpQICMVRm5YnNT2nKO-10" value="USUARIO" style="rounded=0;whiteSpace=wrap;html=1;fillColor=#dae8fc;strokeColor=#6c8ebf;" vertex="1" parent="WIyWlLk6GJQsqaUBKTNV-1">
          <mxGeometry x="-190" y="195" width="120" height="60" as="geometry" />
        </mxCell>
        <mxCell id="GLUpQICMVRm5YnNT2nKO-42" style="edgeStyle=orthogonalEdgeStyle;rounded=0;orthogonalLoop=1;jettySize=auto;html=1;entryX=1;entryY=0.5;entryDx=0;entryDy=0;" edge="1" parent="WIyWlLk6GJQsqaUBKTNV-1" source="GLUpQICMVRm5YnNT2nKO-11" target="GLUpQICMVRm5YnNT2nKO-41">
          <mxGeometry relative="1" as="geometry">
            <Array as="points">
              <mxPoint x="690" y="360" />
            </Array>
          </mxGeometry>
        </mxCell>
        <mxCell id="GLUpQICMVRm5YnNT2nKO-11" value="PROFESIONAL" style="rounded=0;whiteSpace=wrap;html=1;fillColor=#dae8fc;strokeColor=#6c8ebf;" vertex="1" parent="WIyWlLk6GJQsqaUBKTNV-1">
          <mxGeometry x="630" y="210" width="120" height="60" as="geometry" />
        </mxCell>
        <mxCell id="GLUpQICMVRm5YnNT2nKO-20" value="" style="edgeStyle=orthogonalEdgeStyle;rounded=0;orthogonalLoop=1;jettySize=auto;html=1;" edge="1" parent="WIyWlLk6GJQsqaUBKTNV-1" source="GLUpQICMVRm5YnNT2nKO-12" target="GLUpQICMVRm5YnNT2nKO-18">
          <mxGeometry relative="1" as="geometry" />
        </mxCell>
        <mxCell id="GLUpQICMVRm5YnNT2nKO-12" value="SERVICIO" style="rounded=1;whiteSpace=wrap;html=1;fillColor=#e1d5e7;strokeColor=#9673a6;" vertex="1" parent="WIyWlLk6GJQsqaUBKTNV-1">
          <mxGeometry x="630" y="65" width="120" height="60" as="geometry" />
        </mxCell>
        <mxCell id="GLUpQICMVRm5YnNT2nKO-74" style="edgeStyle=orthogonalEdgeStyle;rounded=0;orthogonalLoop=1;jettySize=auto;html=1;entryX=1;entryY=0.5;entryDx=0;entryDy=0;" edge="1" parent="WIyWlLk6GJQsqaUBKTNV-1" source="GLUpQICMVRm5YnNT2nKO-18" target="GLUpQICMVRm5YnNT2nKO-44">
          <mxGeometry relative="1" as="geometry" />
        </mxCell>
        <mxCell id="GLUpQICMVRm5YnNT2nKO-18" value="Solicitado&lt;div&gt;en&lt;/div&gt;" style="strokeWidth=2;html=1;shape=mxgraph.flowchart.decision;whiteSpace=wrap;fillColor=#d5e8d4;strokeColor=#82b366;" vertex="1" parent="WIyWlLk6GJQsqaUBKTNV-1">
          <mxGeometry x="500" y="60" width="100" height="70" as="geometry" />
        </mxCell>
        <mxCell id="GLUpQICMVRm5YnNT2nKO-25" style="edgeStyle=orthogonalEdgeStyle;rounded=0;orthogonalLoop=1;jettySize=auto;html=1;entryX=0;entryY=0.5;entryDx=0;entryDy=0;entryPerimeter=0;" edge="1" parent="WIyWlLk6GJQsqaUBKTNV-1" source="GLUpQICMVRm5YnNT2nKO-10" target="GLUpQICMVRm5YnNT2nKO-6">
          <mxGeometry relative="1" as="geometry" />
        </mxCell>
        <mxCell id="GLUpQICMVRm5YnNT2nKO-27" style="edgeStyle=orthogonalEdgeStyle;rounded=0;orthogonalLoop=1;jettySize=auto;html=1;entryX=0.5;entryY=1;entryDx=0;entryDy=0;entryPerimeter=0;" edge="1" parent="WIyWlLk6GJQsqaUBKTNV-1" source="GLUpQICMVRm5YnNT2nKO-11" target="GLUpQICMVRm5YnNT2nKO-18">
          <mxGeometry relative="1" as="geometry">
            <Array as="points">
              <mxPoint x="690" y="160" />
              <mxPoint x="550" y="160" />
            </Array>
          </mxGeometry>
        </mxCell>
        <mxCell id="GLUpQICMVRm5YnNT2nKO-28" value="Petición de&amp;nbsp;&lt;div&gt;trabajo&lt;/div&gt;" style="strokeWidth=2;html=1;shape=mxgraph.flowchart.decision;whiteSpace=wrap;fillColor=#fff2cc;strokeColor=#d6b656;" vertex="1" parent="WIyWlLk6GJQsqaUBKTNV-1">
          <mxGeometry x="-10" y="58.13" width="110" height="73.75" as="geometry" />
        </mxCell>
        <mxCell id="GLUpQICMVRm5YnNT2nKO-39" style="edgeStyle=orthogonalEdgeStyle;rounded=0;orthogonalLoop=1;jettySize=auto;html=1;entryX=0;entryY=0.5;entryDx=0;entryDy=0;" edge="1" parent="WIyWlLk6GJQsqaUBKTNV-1" source="GLUpQICMVRm5YnNT2nKO-31" target="GLUpQICMVRm5YnNT2nKO-34">
          <mxGeometry relative="1" as="geometry" />
        </mxCell>
        <mxCell id="GLUpQICMVRm5YnNT2nKO-31" value="Puede OPTAR&lt;div&gt;por escribir&lt;/div&gt;" style="strokeWidth=2;html=1;shape=mxgraph.flowchart.decision;whiteSpace=wrap;fillColor=#ffe6cc;strokeColor=#d79b00;" vertex="1" parent="WIyWlLk6GJQsqaUBKTNV-1">
          <mxGeometry y="320" width="125" height="80" as="geometry" />
        </mxCell>
        <mxCell id="GLUpQICMVRm5YnNT2nKO-32" style="edgeStyle=orthogonalEdgeStyle;rounded=0;orthogonalLoop=1;jettySize=auto;html=1;entryX=0;entryY=0.5;entryDx=0;entryDy=0;entryPerimeter=0;" edge="1" parent="WIyWlLk6GJQsqaUBKTNV-1" source="GLUpQICMVRm5YnNT2nKO-10" target="GLUpQICMVRm5YnNT2nKO-31">
          <mxGeometry relative="1" as="geometry">
            <Array as="points">
              <mxPoint x="-130" y="360" />
            </Array>
          </mxGeometry>
        </mxCell>
        <mxCell id="GLUpQICMVRm5YnNT2nKO-34" value="RESEÑA" style="rounded=1;whiteSpace=wrap;html=1;" vertex="1" parent="WIyWlLk6GJQsqaUBKTNV-1">
          <mxGeometry x="340" y="330" width="120" height="60" as="geometry" />
        </mxCell>
        <mxCell id="GLUpQICMVRm5YnNT2nKO-43" style="edgeStyle=orthogonalEdgeStyle;rounded=0;orthogonalLoop=1;jettySize=auto;html=1;entryX=1;entryY=0.5;entryDx=0;entryDy=0;" edge="1" parent="WIyWlLk6GJQsqaUBKTNV-1" source="GLUpQICMVRm5YnNT2nKO-41" target="GLUpQICMVRm5YnNT2nKO-34">
          <mxGeometry relative="1" as="geometry" />
        </mxCell>
        <mxCell id="GLUpQICMVRm5YnNT2nKO-41" value="Puede recibir" style="rhombus;whiteSpace=wrap;html=1;fillColor=#d5e8d4;strokeColor=#82b366;" vertex="1" parent="WIyWlLk6GJQsqaUBKTNV-1">
          <mxGeometry x="530" y="330" width="95" height="60" as="geometry" />
        </mxCell>
        <mxCell id="GLUpQICMVRm5YnNT2nKO-45" value="&lt;u&gt;rut_usuario&lt;/u&gt;" style="rounded=0;whiteSpace=wrap;html=1;" vertex="1" parent="WIyWlLk6GJQsqaUBKTNV-1">
          <mxGeometry x="90" y="420" width="100" height="30" as="geometry" />
        </mxCell>
        <mxCell id="GLUpQICMVRm5YnNT2nKO-46" value="&lt;u&gt;id_profesional&lt;/u&gt;" style="rounded=0;whiteSpace=wrap;html=1;" vertex="1" parent="WIyWlLk6GJQsqaUBKTNV-1">
          <mxGeometry x="260" y="420" width="100" height="30" as="geometry" />
        </mxCell>
        <mxCell id="GLUpQICMVRm5YnNT2nKO-48" value="Comentario" style="rounded=0;whiteSpace=wrap;html=1;" vertex="1" parent="WIyWlLk6GJQsqaUBKTNV-1">
          <mxGeometry x="450" y="420" width="100" height="30" as="geometry" />
        </mxCell>
        <mxCell id="GLUpQICMVRm5YnNT2nKO-49" value="Calificación" style="rounded=0;whiteSpace=wrap;html=1;" vertex="1" parent="WIyWlLk6GJQsqaUBKTNV-1">
          <mxGeometry x="620" y="420" width="100" height="30" as="geometry" />
        </mxCell>
        <mxCell id="GLUpQICMVRm5YnNT2nKO-50" value="" style="strokeWidth=2;html=1;shape=mxgraph.flowchart.annotation_2;align=left;labelPosition=right;pointerEvents=1;rotation=90;" vertex="1" parent="WIyWlLk6GJQsqaUBKTNV-1">
          <mxGeometry x="390" y="140.63" width="30" height="528.75" as="geometry" />
        </mxCell>
        <mxCell id="GLUpQICMVRm5YnNT2nKO-54" value="" style="strokeWidth=2;html=1;shape=mxgraph.flowchart.annotation_2;align=left;labelPosition=right;pointerEvents=1;rotation=90;" vertex="1" parent="WIyWlLk6GJQsqaUBKTNV-1">
          <mxGeometry x="390.48" y="311.15" width="28.43" height="188.13" as="geometry" />
        </mxCell>
        <mxCell id="GLUpQICMVRm5YnNT2nKO-56" value="" style="strokeWidth=2;html=1;shape=mxgraph.flowchart.annotation_2;align=left;labelPosition=right;pointerEvents=1;" vertex="1" parent="WIyWlLk6GJQsqaUBKTNV-1">
          <mxGeometry x="750" y="140" width="50" height="200" as="geometry" />
        </mxCell>
        <mxCell id="GLUpQICMVRm5YnNT2nKO-60" value="&lt;u&gt;id_profesional&lt;/u&gt;" style="rounded=0;whiteSpace=wrap;html=1;" vertex="1" parent="WIyWlLk6GJQsqaUBKTNV-1">
          <mxGeometry x="800" y="19.999999999999964" width="100" height="30" as="geometry" />
        </mxCell>
        <mxCell id="GLUpQICMVRm5YnNT2nKO-62" value="&lt;u&gt;id_usuario&lt;/u&gt;" style="rounded=0;whiteSpace=wrap;html=1;" vertex="1" parent="WIyWlLk6GJQsqaUBKTNV-1">
          <mxGeometry x="800" y="125" width="100" height="30" as="geometry" />
        </mxCell>
        <mxCell id="GLUpQICMVRm5YnNT2nKO-63" value="" style="endArrow=none;html=1;rounded=0;entryX=1;entryY=0.5;entryDx=0;entryDy=0;entryPerimeter=0;" edge="1" parent="WIyWlLk6GJQsqaUBKTNV-1" target="GLUpQICMVRm5YnNT2nKO-56">
          <mxGeometry width="50" height="50" relative="1" as="geometry">
            <mxPoint x="776" y="240" as="sourcePoint" />
            <mxPoint x="850" y="300" as="targetPoint" />
          </mxGeometry>
        </mxCell>
        <mxCell id="GLUpQICMVRm5YnNT2nKO-64" value="Oficio" style="rounded=0;whiteSpace=wrap;html=1;" vertex="1" parent="WIyWlLk6GJQsqaUBKTNV-1">
          <mxGeometry x="800" y="224.99999999999997" width="100" height="30" as="geometry" />
        </mxCell>
        <mxCell id="GLUpQICMVRm5YnNT2nKO-65" value="Verificación" style="rounded=0;whiteSpace=wrap;html=1;" vertex="1" parent="WIyWlLk6GJQsqaUBKTNV-1">
          <mxGeometry x="800" y="320" width="100" height="30" as="geometry" />
        </mxCell>
        <mxCell id="GLUpQICMVRm5YnNT2nKO-66" value="Valoración" style="rounded=0;whiteSpace=wrap;html=1;" vertex="1" parent="WIyWlLk6GJQsqaUBKTNV-1">
          <mxGeometry x="800" y="430" width="100" height="30" as="geometry" />
        </mxCell>
        <mxCell id="GLUpQICMVRm5YnNT2nKO-67" value="" style="strokeWidth=2;html=1;shape=mxgraph.flowchart.annotation_2;align=left;labelPosition=right;pointerEvents=1;rotation=-90;" vertex="1" parent="WIyWlLk6GJQsqaUBKTNV-1">
          <mxGeometry x="609.88" y="-97.12" width="161.75" height="163.5" as="geometry" />
        </mxCell>
        <mxCell id="GLUpQICMVRm5YnNT2nKO-71" value="&lt;u&gt;id_servicio&lt;/u&gt;" style="rounded=0;whiteSpace=wrap;html=1;" vertex="1" parent="WIyWlLk6GJQsqaUBKTNV-1">
          <mxGeometry x="430" y="-127.12000000000003" width="100" height="30" as="geometry" />
        </mxCell>
        <mxCell id="GLUpQICMVRm5YnNT2nKO-73" value="" style="edgeStyle=orthogonalEdgeStyle;rounded=0;orthogonalLoop=1;jettySize=auto;html=1;entryX=0;entryY=0.5;entryDx=0;entryDy=0;" edge="1" parent="WIyWlLk6GJQsqaUBKTNV-1" source="GLUpQICMVRm5YnNT2nKO-28" target="GLUpQICMVRm5YnNT2nKO-44">
          <mxGeometry relative="1" as="geometry">
            <mxPoint x="100" y="93" as="sourcePoint" />
            <mxPoint x="340" y="95" as="targetPoint" />
          </mxGeometry>
        </mxCell>
        <mxCell id="GLUpQICMVRm5YnNT2nKO-44" value="CONTRATO" style="rounded=1;whiteSpace=wrap;html=1;" vertex="1" parent="WIyWlLk6GJQsqaUBKTNV-1">
          <mxGeometry x="160" y="65" width="120" height="60" as="geometry" />
        </mxCell>
        <mxCell id="GLUpQICMVRm5YnNT2nKO-75" style="edgeStyle=orthogonalEdgeStyle;rounded=0;orthogonalLoop=1;jettySize=auto;html=1;entryX=0;entryY=0.5;entryDx=0;entryDy=0;entryPerimeter=0;" edge="1" parent="WIyWlLk6GJQsqaUBKTNV-1" source="GLUpQICMVRm5YnNT2nKO-10" target="GLUpQICMVRm5YnNT2nKO-28">
          <mxGeometry relative="1" as="geometry">
            <Array as="points">
              <mxPoint x="-120" y="95" />
            </Array>
          </mxGeometry>
        </mxCell>
        <mxCell id="GLUpQICMVRm5YnNT2nKO-76" value="&lt;u&gt;tipo_servicio&lt;/u&gt;" style="rounded=0;whiteSpace=wrap;html=1;" vertex="1" parent="WIyWlLk6GJQsqaUBKTNV-1">
          <mxGeometry x="560" y="-127.12000000000003" width="100" height="30" as="geometry" />
        </mxCell>
        <mxCell id="GLUpQICMVRm5YnNT2nKO-77" value="Descripción" style="rounded=0;whiteSpace=wrap;html=1;" vertex="1" parent="WIyWlLk6GJQsqaUBKTNV-1">
          <mxGeometry x="720" y="-127.12000000000003" width="100" height="30" as="geometry" />
        </mxCell>
        <mxCell id="GLUpQICMVRm5YnNT2nKO-78" value="precio_base" style="rounded=0;whiteSpace=wrap;html=1;" vertex="1" parent="WIyWlLk6GJQsqaUBKTNV-1">
          <mxGeometry x="850" y="-127.12000000000003" width="100" height="30" as="geometry" />
        </mxCell>
        <mxCell id="GLUpQICMVRm5YnNT2nKO-79" value="" style="strokeWidth=2;html=1;shape=mxgraph.flowchart.annotation_2;align=left;labelPosition=right;pointerEvents=1;rotation=-90;" vertex="1" parent="WIyWlLk6GJQsqaUBKTNV-1">
          <mxGeometry x="197.5" y="-242.5" width="50" height="565" as="geometry" />
        </mxCell>
        <mxCell id="GLUpQICMVRm5YnNT2nKO-80" value="Descripción" style="rounded=0;whiteSpace=wrap;html=1;" vertex="1" parent="WIyWlLk6GJQsqaUBKTNV-1">
          <mxGeometry x="460" y="-10.000000000000028" width="100" height="30" as="geometry" />
        </mxCell>
        <mxCell id="GLUpQICMVRm5YnNT2nKO-81" value="" style="strokeWidth=2;html=1;shape=mxgraph.flowchart.annotation_2;align=left;labelPosition=right;pointerEvents=1;rotation=-90;" vertex="1" parent="WIyWlLk6GJQsqaUBKTNV-1">
          <mxGeometry x="198" y="-142.5" width="50" height="365" as="geometry" />
        </mxCell>
        <mxCell id="GLUpQICMVRm5YnNT2nKO-82" value="" style="strokeWidth=2;html=1;shape=mxgraph.flowchart.annotation_2;align=left;labelPosition=right;pointerEvents=1;rotation=-90;" vertex="1" parent="WIyWlLk6GJQsqaUBKTNV-1">
          <mxGeometry x="197.5" y="-10" width="50" height="100" as="geometry" />
        </mxCell>
        <mxCell id="GLUpQICMVRm5YnNT2nKO-83" value="&lt;u&gt;id_contrato&lt;/u&gt;" style="rounded=0;whiteSpace=wrap;html=1;" vertex="1" parent="WIyWlLk6GJQsqaUBKTNV-1">
          <mxGeometry x="-110" y="-10.000000000000028" width="100" height="30" as="geometry" />
        </mxCell>
        <mxCell id="GLUpQICMVRm5YnNT2nKO-84" value="&lt;u&gt;id_servicio&lt;/u&gt;" style="rounded=0;whiteSpace=wrap;html=1;" vertex="1" parent="WIyWlLk6GJQsqaUBKTNV-1">
          <mxGeometry y="-10.000000000000028" width="100" height="30" as="geometry" />
        </mxCell>
        <mxCell id="GLUpQICMVRm5YnNT2nKO-85" value="&lt;u&gt;id_usuario&lt;/u&gt;" style="rounded=0;whiteSpace=wrap;html=1;" vertex="1" parent="WIyWlLk6GJQsqaUBKTNV-1">
          <mxGeometry x="110" y="-10.000000000000028" width="100" height="30" as="geometry" />
        </mxCell>
        <mxCell id="GLUpQICMVRm5YnNT2nKO-86" value="Fecha" style="rounded=0;whiteSpace=wrap;html=1;" vertex="1" parent="WIyWlLk6GJQsqaUBKTNV-1">
          <mxGeometry x="240" y="-10.000000000000028" width="100" height="30" as="geometry" />
        </mxCell>
        <mxCell id="GLUpQICMVRm5YnNT2nKO-87" value="Estado" style="rounded=0;whiteSpace=wrap;html=1;" vertex="1" parent="WIyWlLk6GJQsqaUBKTNV-1">
          <mxGeometry x="350" y="-10.000000000000028" width="100" height="30" as="geometry" />
        </mxCell>
        <mxCell id="GLUpQICMVRm5YnNT2nKO-88" value="" style="strokeWidth=2;html=1;shape=mxgraph.flowchart.annotation_2;align=left;labelPosition=right;pointerEvents=1;rotation=-180;" vertex="1" parent="WIyWlLk6GJQsqaUBKTNV-1">
          <mxGeometry x="-240" y="55" width="50" height="347.5" as="geometry" />
        </mxCell>
        <mxCell id="GLUpQICMVRm5YnNT2nKO-89" value="" style="strokeWidth=2;html=1;shape=mxgraph.flowchart.annotation_2;align=left;labelPosition=right;pointerEvents=1;rotation=-180;" vertex="1" parent="WIyWlLk6GJQsqaUBKTNV-1">
          <mxGeometry x="-240" y="155.5" width="50" height="146.25" as="geometry" />
        </mxCell>
        <mxCell id="GLUpQICMVRm5YnNT2nKO-90" value="&lt;u&gt;rut_usuario&lt;/u&gt;" style="rounded=0;whiteSpace=wrap;html=1;" vertex="1" parent="WIyWlLk6GJQsqaUBKTNV-1">
          <mxGeometry x="-340" y="35" width="100" height="30" as="geometry" />
        </mxCell>
        <mxCell id="GLUpQICMVRm5YnNT2nKO-92" value="Nombre" style="rounded=0;whiteSpace=wrap;html=1;" vertex="1" parent="WIyWlLk6GJQsqaUBKTNV-1">
          <mxGeometry x="-340" y="140" width="100" height="30" as="geometry" />
        </mxCell>
        <mxCell id="GLUpQICMVRm5YnNT2nKO-93" value="Email" style="rounded=0;whiteSpace=wrap;html=1;" vertex="1" parent="WIyWlLk6GJQsqaUBKTNV-1">
          <mxGeometry x="-340" y="281.15" width="100" height="30" as="geometry" />
        </mxCell>
        <mxCell id="GLUpQICMVRm5YnNT2nKO-94" value="tipo_usuario" style="rounded=0;whiteSpace=wrap;html=1;" vertex="1" parent="WIyWlLk6GJQsqaUBKTNV-1">
          <mxGeometry x="-340" y="390.22" width="100" height="30" as="geometry" />
        </mxCell>
      </root>
    </mxGraphModel>
  </diagram>
</mxfile>
